<svg width="16" height="16" viewBox="0 0 16 16" fill="none" xmlns="http://www.w3.org/2000/svg">
<path d="M10.606 8.08232L16 11.4923V4.52832L10.606 8.08232Z" fill="#454545"/>
<path d="M0 4.52832V11.4923L5.394 8.08232L0 4.52832Z" fill="#454545"/>
<path d="M15 2.5H1.00003C0.501029 2.5 0.105029 2.872 0.0300293 3.351L8.00003 8.602L15.97 3.351C15.895 2.872 15.499 2.5 15 2.5Z" fill="#454545"/>
<path d="M9.68998 8.68557L8.27498 9.61757C8.19098 9.67257 8.09598 9.69957 7.99998 9.69957C7.90398 9.69957 7.80898 9.67257 7.72498 9.61757L6.30998 8.68457L0.0319824 12.6556C0.108982 13.1306 0.502982 13.4996 0.999983 13.4996H15C15.497 13.4996 15.891 13.1306 15.968 12.6556L9.68998 8.68557Z" fill="#454545"/>
</svg>
