<svg width="12" height="12" viewBox="0 0 12 12" fill="none" xmlns="http://www.w3.org/2000/svg">
<path d="M7.95459 6.0615L12.0001 8.619V3.396L7.95459 6.0615Z" fill="#ED1F24"/>
<path d="M0 3.396V8.619L4.0455 6.0615L0 3.396Z" fill="#ED1F24"/>
<path d="M11.25 1.875H0.749961C0.375711 1.875 0.0787109 2.154 0.0224609 2.51325L5.99996 6.4515L11.9775 2.51325C11.9212 2.154 11.6242 1.875 11.25 1.875Z" fill="#ED1F24"/>
<path d="M7.26743 6.51442L6.20618 7.21342C6.14318 7.25467 6.07193 7.27492 5.99993 7.27492C5.92793 7.27492 5.85668 7.25467 5.79368 7.21342L4.73243 6.51367L0.0239258 9.49192C0.0816758 9.84817 0.377176 10.1249 0.749926 10.1249H11.2499C11.6227 10.1249 11.9182 9.84817 11.9759 9.49192L7.26743 6.51442Z" fill="#ED1F24"/>
</svg>
