<svg width="820" height="545" viewBox="0 0 820 545" fill="none" xmlns="http://www.w3.org/2000/svg">
<circle cx="136.286" cy="408.203" r="136.068" transform="rotate(90 136.286 408.203)" fill="white"/>
<circle cx="408.421" cy="408.203" r="136.068" transform="rotate(90 408.421 408.203)" fill="white"/>
<circle cx="683.932" cy="408.203" r="136.068" transform="rotate(90 683.932 408.203)" fill="white"/>
<circle cx="683.932" cy="136.068" r="136.068" transform="rotate(90 683.932 136.068)" fill="white"/>
<path fill-rule="evenodd" clip-rule="evenodd" d="M691.602 0.212508L691.602 271.923C689.063 272.064 686.506 272.135 683.932 272.135C608.784 272.135 547.865 211.216 547.865 136.068C547.865 60.9195 608.785 -3.28482e-06 683.933 0C686.506 1.12505e-07 689.063 0.0714614 691.602 0.212508Z" fill="#A3F75D"/>
<path fill-rule="evenodd" clip-rule="evenodd" d="M547.921 412.135C550.002 485.465 610.1 544.27 683.933 544.27C686.506 544.27 689.064 544.199 691.602 544.058V412.135L547.921 412.135Z" fill="#A3F75D"/>
<path fill-rule="evenodd" clip-rule="evenodd" d="M272.409 412.135C274.491 485.465 334.588 544.27 408.421 544.27C482.254 544.27 542.352 485.465 544.433 412.135L272.409 412.135Z" fill="#A3F75D"/>
<path fill-rule="evenodd" clip-rule="evenodd" d="M0.274414 412.135C2.35551 485.465 62.4534 544.27 136.286 544.27C210.119 544.27 270.217 485.465 272.298 412.135L0.274414 412.135Z" fill="#A3F75D"/>
</svg>
