<svg width="16" height="16" viewBox="0 0 16 16" fill="none" xmlns="http://www.w3.org/2000/svg">
<path d="M10.606 8.08201L16 11.492V4.52802L10.606 8.08201Z" fill="#A3F75D"/>
<path d="M0 4.52802V11.492L5.394 8.08201L0 4.52802Z" fill="#A3F75D"/>
<path d="M15 2.5H1.00003C0.501029 2.5 0.105029 2.872 0.0300293 3.351L8.00003 8.602L15.97 3.351C15.895 2.872 15.499 2.5 15 2.5Z" fill="#A3F75D"/>
<path d="M9.68998 8.686L8.27498 9.618C8.19098 9.673 8.09598 9.7 7.99998 9.7C7.90398 9.7 7.80898 9.673 7.72498 9.618L6.30998 8.685L0.0319824 12.656C0.108982 13.131 0.502982 13.5 0.999983 13.5H15C15.497 13.5 15.891 13.131 15.968 12.656L9.68998 8.686Z" fill="#A3F75D"/>
</svg>
