<svg width="17" height="16" viewBox="0 0 17 16" fill="none" xmlns="http://www.w3.org/2000/svg">
<g clip-path="url(#clip0)">
<path d="M11.5339 8.08208L16.9279 11.4921V4.52808L11.5339 8.08208Z" fill="white"/>
<path d="M0.927979 4.52808V11.4921L6.32198 8.08208L0.927979 4.52808Z" fill="white"/>
<path d="M15.928 2.5H1.92801C1.42901 2.5 1.03301 2.872 0.958008 3.351L8.92801 8.602L16.898 3.351C16.823 2.872 16.427 2.5 15.928 2.5Z" fill="white"/>
<path d="M10.618 8.68606L9.20296 9.61806C9.11896 9.67306 9.02396 9.70006 8.92796 9.70006C8.83196 9.70006 8.73696 9.67306 8.65296 9.61806L7.23796 8.68506L0.959961 12.6561C1.03696 13.1311 1.43096 13.5001 1.92796 13.5001H15.928C16.425 13.5001 16.819 13.1311 16.896 12.6561L10.618 8.68606Z" fill="white"/>
</g>
<defs>
<clipPath id="clip0">
<rect width="16" height="16" fill="white" transform="translate(0.927979)"/>
</clipPath>
</defs>
</svg>
