<svg width="19" height="28" viewBox="0 0 19 28" fill="none" xmlns="http://www.w3.org/2000/svg">
<path d="M16.189 8.23518C14.0974 6.70219 11.9514 4.81278 10.4241 2.52177L9.08699 0.516261C8.80374 0.0913815 8.27575 -0.0978148 7.78513 0.0494582C7.29566 0.197891 6.96143 0.648838 6.96143 1.15988V19.3636C6.27612 18.9639 5.49002 18.7182 4.64096 18.7182C2.08139 18.7182 0 20.7996 0 23.3591C0 25.9187 2.08139 28 4.64096 28C7.20052 28 9.28191 25.9186 9.28191 23.359V4.96941C10.9214 7.04175 12.9722 8.75411 14.8169 10.107C15.7232 10.7709 16.2433 11.7953 16.2433 12.9169C16.2433 14.8362 14.682 16.3976 12.7626 16.3976C12.1213 16.3976 11.6024 16.9165 11.6024 17.5578C11.6024 18.1992 12.1213 18.7181 12.7626 18.7181C15.9613 18.7181 18.5638 16.1155 18.5638 12.9169C18.5638 11.0757 17.6766 9.32626 16.189 8.23518Z" fill="#D2D2D2"/>
</svg>
