<svg width="321" height="484" viewBox="0 0 321 484" fill="none" xmlns="http://www.w3.org/2000/svg">
<path d="M279.61 142.235C243.485 115.758 206.42 83.1247 180.041 43.5552L156.947 8.91669C152.055 1.57831 142.936 -1.68942 134.462 0.854226C126.008 3.41792 120.236 11.2065 120.236 20.0331V334.441C108.399 327.538 94.8218 323.294 80.157 323.294C35.9491 323.294 0 359.243 0 403.451C0 447.659 35.9491 483.607 80.157 483.607C124.365 483.607 160.314 447.658 160.314 403.45V85.83C188.631 121.623 224.052 151.198 255.912 174.564C271.567 186.032 280.55 203.724 280.55 223.096C280.55 256.247 253.582 283.214 220.432 283.214C209.355 283.214 200.393 292.177 200.393 303.253C200.393 314.33 209.355 323.293 220.432 323.293C275.677 323.293 320.628 278.342 320.628 223.096C320.628 191.295 305.305 161.08 279.61 142.235Z" fill="#E0E0E0"/>
</svg>
